<svg xmlns="http://www.w3.org/2000/svg" viewBox="0 0 116.149 35.211">
  <defs>
    <style>
      .cls-1 {
        fill: #fff;
      }

      .cls-2 {
        fill: #8dc63f;
        fill-rule: evenodd;
      }

      .cls-3 {
        fill: #ffc629;
      }

      .cls-4 {
        fill: #ff8300;
      }
    </style>
  </defs>
  <g id="Group_8" data-name="Group 8" transform="translate(-856.308 -51)">
    <g id="Group_1" data-name="Group 1" transform="translate(856.308 62.472)">
      <path id="Path_1" data-name="Path 1" class="cls-1" d="M13.631,68.422a2.972,2.972,0,0,0-.885.124,4.108,4.108,0,0,0-.867.389,5.927,5.927,0,0,0-.938.708,14.423,14.423,0,0,0-1.062,1.044q-.637.664-1.328,1.487c-.46.549-.974,1.133-1.5,1.753q1.062,2.151,2.018,3.93a31.784,31.784,0,0,0,1.894,3.08,9.5,9.5,0,0,0,1.859,2.018,3.113,3.113,0,0,0,1.912.726h.212v1.133a8.025,8.025,0,0,1-1.133.23,10.125,10.125,0,0,1-1.345.071,5.194,5.194,0,0,1-2.177-.425,5.188,5.188,0,0,1-1.77-1.434A14.9,14.9,0,0,1,6.78,80.583c-.6-1.1-1.275-2.478-2.036-4.107q-.133.159-.319.372c-.124.142-.248.3-.389.443-.142.159-.266.3-.372.443-.124.142-.212.266-.266.336V84.9H0V67.235H3.417V75.52c.336-.389.726-.885,1.2-1.469.46-.584.956-1.186,1.434-1.806.5-.62.974-1.2,1.416-1.753.46-.549.832-.991,1.151-1.328A9.586,9.586,0,0,1,9.7,68.121a4.069,4.069,0,0,1,.956-.6,3.787,3.787,0,0,1,.974-.266,11.181,11.181,0,0,1,1.151-.053c.177,0,.389.018.62.035a1.924,1.924,0,0,1,.5.089v1.1h-.266Z" transform="translate(0 -66.775)"/>
      <path id="Path_2" data-name="Path 2" class="cls-1" d="M97.267,77.051H96.117v7.294H92.7V66.695c.69-.053,1.469-.089,2.337-.142q1.3-.053,2.5-.053a7.762,7.762,0,0,1,4.638,1.168,4.241,4.241,0,0,1,1.593,3.665,6.274,6.274,0,0,1-.266,1.93,5.42,5.42,0,0,1-.708,1.434,4.349,4.349,0,0,1-1.027,1.027,6.917,6.917,0,0,1-1.2.708c.5.9.974,1.77,1.434,2.567a19.814,19.814,0,0,0,1.363,2.107,7.681,7.681,0,0,0,1.381,1.434,2.44,2.44,0,0,0,1.5.531h.124V84.2a5.693,5.693,0,0,1-.938.212,7.908,7.908,0,0,1-1.186.089,6.611,6.611,0,0,1-1.646-.177,3.589,3.589,0,0,1-1.363-.744A7.955,7.955,0,0,1,99.852,81.9a31.731,31.731,0,0,1-1.646-3.01ZM96.736,75.3a5.093,5.093,0,0,0,1.381-.177,3.421,3.421,0,0,0,1.044-.443c.124-.089.248-.212.389-.336a2.261,2.261,0,0,0,.354-.549,3.322,3.322,0,0,0,.248-.885,7.2,7.2,0,0,0,.089-1.345,5.4,5.4,0,0,0-.195-1.522,2.408,2.408,0,0,0-.6-.991,2.332,2.332,0,0,0-.991-.531,5.337,5.337,0,0,0-1.363-.159,4.642,4.642,0,0,0-.478.018,1.975,1.975,0,0,0-.478.053v6.9h.6Z" transform="translate(-76.289 -66.199)"/>
      <path id="Path_3" data-name="Path 3" class="cls-1" d="M189.891,84.6l-11.9-12.41h-.035c.018,1.027.053,1.983.071,2.85.018.372.018.744.035,1.115,0,.372.018.708.018,1.027s.018.584.018.832v6.479h-2V66.7h1.5l11.9,12.339c-.018-.938-.018-1.841-.035-2.673,0-.354,0-.726-.018-1.08,0-.372-.018-.708-.018-1.044s-.018-.637-.018-.9v-6.5h2V84.6Z" transform="translate(-144.925 -66.364)"/>
      <path id="Path_4" data-name="Path 4" class="cls-1" d="M280.065,83.758a7.084,7.084,0,0,1-1.275,4.408,7.828,7.828,0,0,1-3.806,2.514l-.584-1.1a5.077,5.077,0,0,0,1.133-.938,4.324,4.324,0,0,0,.69-1.115,6.02,6.02,0,0,0,.336-1.292,9.544,9.544,0,0,0,.089-1.452V67.4h3.417Z" transform="translate(-225.823 -66.94)"/>
      <path id="Path_5" data-name="Path 5" class="cls-1" d="M334.426,85.068H324.3V67.4h9.772l-.177,1.806-6.178.071V75.03l5.824.071-.159,1.629-5.665.142v6.32l6.851.142Z" transform="translate(-266.889 -66.94)"/>
      <path id="Path_6" data-name="Path 6" class="cls-1" d="M401.026,67.4H403.1l-6.231,17.685H393.52L387.2,67.4h3.682l3.187,9.524c.248.726.478,1.434.69,2.142.212.69.407,1.328.6,1.894.212.655.389,1.275.549,1.877.212-.708.425-1.434.655-2.142.195-.62.407-1.275.62-2,.23-.708.443-1.381.655-2Z" transform="translate(-318.654 -66.94)"/>
      <path id="Path_7" data-name="Path 7" class="cls-1" d="M492.234,82.928l-1.983-5.966-6.338.089-2.036,5.877H479.7L486.356,65.4l3.328-.6,6.2,18.11h-3.647ZM489.72,75.3l-2.567-7.63-2.62,7.63Z" transform="translate(-394.779 -64.8)"/>
      <path id="Path_8" data-name="Path 8" class="cls-1" d="M587.458,84.41a7.749,7.749,0,0,1-3.364-.673,5.957,5.957,0,0,1-2.248-1.877,8.031,8.031,0,0,1-1.257-2.9,16.563,16.563,0,0,1-.389-3.771,10.177,10.177,0,0,1,.389-2.974,8.073,8.073,0,0,1,1.044-2.3,7.392,7.392,0,0,1,1.54-1.682,8.664,8.664,0,0,1,1.841-1.115,9.168,9.168,0,0,1,1.983-.62,11.057,11.057,0,0,1,1.983-.195c.407,0,.814.018,1.257.035s.867.053,1.292.106c.407.053.8.089,1.168.159.354.053.655.106.885.159l-.637,2.514c-.23-.071-.549-.159-.974-.248s-.867-.159-1.345-.248c-.478-.071-.956-.142-1.416-.195a10.2,10.2,0,0,0-1.168-.071c-.354,0-.655.018-.921.035a4.7,4.7,0,0,0-.744.106,2.511,2.511,0,0,0-.637.248,3.85,3.85,0,0,0-.6.389,3.1,3.1,0,0,0-1.062,2.107,21.46,21.46,0,0,0-.283,3.877,10.985,10.985,0,0,0,1.062,5.4,3.629,3.629,0,0,0,3.4,1.823,18.85,18.85,0,0,0,2.762-.212,15.375,15.375,0,0,0,2.62-.62v1.469a10.247,10.247,0,0,1-1.416.549,15.489,15.489,0,0,1-1.558.407,16.055,16.055,0,0,1-1.611.248C588.485,84.392,587.954,84.41,587.458,84.41Z" transform="translate(-477.487 -66.034)"/>
    </g>
    <g id="Group_2" data-name="Group 2" transform="translate(926.819 51)">
      <path id="Path_9" data-name="Path 9" class="cls-2" d="M401.4,0l1.54.885,1.593.9V5.4l-1.593.885-1.54.9-1.558-.9L398.3,5.4V1.788l1.54-.9Z" transform="translate(-398.3)"/>
      <path id="Path_10" data-name="Path 10" class="cls-3" d="M443.051,0l1.558.885,1.54.9V5.4l-1.54.885-1.558.9-1.593-.9L439.9,5.4V1.788l1.558-.9Z" transform="translate(-432.536)"/>
      <path id="Path_11" data-name="Path 11" class="cls-4" d="M421.8,35l1.558.885,1.593.938v3.558l-1.593.9-1.558.938-1.558-.938-1.54-.9V36.823l1.54-.938Z" transform="translate(-415.089 -28.804)"/>
    </g>
  </g>
</svg>
