<svg xmlns="http://www.w3.org/2000/svg" viewBox="0 0 16.79 14.459">
  <defs>
    <style>
      .cls-1 {
        fill: #fff;
      }
    </style>
  </defs>
  <path id="Path_173" data-name="Path 173" class="cls-1" d="M-.024,7.284a.811.811,0,0,0,.582.736L6.71,9.878l.227,4.238a.415.415,0,0,0,.283.368.388.388,0,0,0,.137.026.42.42,0,0,0,.317-.141l2.175-2.406L12.931,14.1a.821.821,0,0,0,1.271-.514L16.758.55a.419.419,0,0,0-.569-.467L.473,6.479a.828.828,0,0,0-.5.8Zm7.74,5.784-.141-2.676L9.15,11.479Zm5.668.325L7.776,9.51,15.64,1.9ZM14.776,1.565,7,9.086.854,7.233Zm0,0" transform="translate(0.025 -0.052)"/>
</svg>
