<svg id="Group_78" data-name="Group 78" xmlns="http://www.w3.org/2000/svg" viewBox="0 0 133.17 40.372">
  <defs>
    <style>
      .cls-1 {
        fill: #0c0c0c;
      }

      .cls-2 {
        fill: #8dc63f;
        fill-rule: evenodd;
      }

      .cls-3 {
        fill: #ffc629;
      }

      .cls-4 {
        fill: #ff8300;
      }
    </style>
  </defs>
  <g id="Group_1" data-name="Group 1" transform="translate(0 13.153)">
    <path id="Path_1" data-name="Path 1" class="cls-1" d="M15.629,68.6a3.407,3.407,0,0,0-1.015.142,4.71,4.71,0,0,0-.995.447A6.8,6.8,0,0,0,12.544,70a16.537,16.537,0,0,0-1.218,1.2Q10.6,71.96,9.8,72.9c-.528.629-1.116,1.3-1.725,2.009q1.218,2.466,2.314,4.506a36.443,36.443,0,0,0,2.172,3.532A10.894,10.894,0,0,0,14.7,85.265a3.57,3.57,0,0,0,2.192.832h.244v1.3a9.2,9.2,0,0,1-1.3.264,11.61,11.61,0,0,1-1.543.081,5.955,5.955,0,0,1-2.5-.487,5.949,5.949,0,0,1-2.03-1.644,17.079,17.079,0,0,1-1.989-3.065c-.69-1.258-1.461-2.842-2.334-4.709q-.152.183-.365.426c-.142.162-.284.345-.447.507-.162.183-.3.345-.426.507-.142.162-.244.3-.3.386V87.5H0V67.241H3.917v9.5c.386-.447.832-1.015,1.38-1.685.528-.67,1.1-1.36,1.644-2.07.568-.71,1.116-1.38,1.624-2.009.528-.629.954-1.137,1.319-1.522a10.991,10.991,0,0,1,1.238-1.2,4.665,4.665,0,0,1,1.1-.69,4.341,4.341,0,0,1,1.116-.3,12.82,12.82,0,0,1,1.319-.061c.2,0,.447.02.71.041a2.206,2.206,0,0,1,.568.1V68.6h-.3Z" transform="translate(0 -66.713)"/>
    <path id="Path_2" data-name="Path 2" class="cls-1" d="M97.937,78.6H96.617V86.96H92.7V66.723c.792-.061,1.685-.1,2.679-.162q1.492-.061,2.862-.061a8.9,8.9,0,0,1,5.318,1.34,4.862,4.862,0,0,1,1.827,4.2,7.194,7.194,0,0,1-.3,2.212,6.214,6.214,0,0,1-.812,1.644,4.986,4.986,0,0,1-1.177,1.177,7.931,7.931,0,0,1-1.38.812c.568,1.035,1.116,2.03,1.644,2.943a22.717,22.717,0,0,0,1.563,2.415,8.807,8.807,0,0,0,1.583,1.644,2.8,2.8,0,0,0,1.725.609h.142v1.3a6.528,6.528,0,0,1-1.076.244,9.068,9.068,0,0,1-1.36.1,7.579,7.579,0,0,1-1.888-.2,4.115,4.115,0,0,1-1.563-.852,9.121,9.121,0,0,1-1.583-1.928,36.382,36.382,0,0,1-1.888-3.451Zm-.609-2.009a5.839,5.839,0,0,0,1.583-.2,3.923,3.923,0,0,0,1.2-.507c.142-.1.284-.244.447-.386a2.592,2.592,0,0,0,.406-.629,3.809,3.809,0,0,0,.284-1.015,8.253,8.253,0,0,0,.1-1.543,6.187,6.187,0,0,0-.223-1.746,2.761,2.761,0,0,0-.69-1.137,2.674,2.674,0,0,0-1.137-.609,6.118,6.118,0,0,0-1.563-.183,5.321,5.321,0,0,0-.548.02,2.264,2.264,0,0,0-.548.061v7.916h.69Z" transform="translate(-73.884 -66.155)"/>
    <path id="Path_3" data-name="Path 3" class="cls-1" d="M191.912,87.221l-13.64-14.228h-.041c.02,1.177.061,2.273.081,3.268.02.426.02.853.041,1.279,0,.426.02.812.02,1.177s.02.67.02.954V87.1H176.1V66.7h1.725l13.64,14.147c-.02-1.076-.02-2.111-.041-3.065,0-.406,0-.832-.02-1.238,0-.426-.02-.812-.02-1.2s-.02-.731-.02-1.035V66.862h2.294V87.221Z" transform="translate(-140.357 -66.314)"/>
    <path id="Path_4" data-name="Path 4" class="cls-1" d="M280.9,86.155a8.122,8.122,0,0,1-1.461,5.054,8.976,8.976,0,0,1-4.364,2.882l-.67-1.258a5.822,5.822,0,0,0,1.3-1.076,4.959,4.959,0,0,0,.792-1.279A6.9,6.9,0,0,0,276.876,89a10.947,10.947,0,0,0,.1-1.664V67.4H280.9Z" transform="translate(-218.704 -66.872)"/>
    <path id="Path_5" data-name="Path 5" class="cls-1" d="M335.91,87.657H324.3V67.4h11.2l-.2,2.07-7.084.081v6.6l6.678.081-.183,1.867-6.5.162v7.246l7.855.162Z" transform="translate(-258.476 -66.872)"/>
    <path id="Path_6" data-name="Path 6" class="cls-1" d="M403.052,67.4h2.375l-7.145,20.277h-3.836L387.2,67.4h4.222l3.654,10.92c.284.832.548,1.644.792,2.456.244.792.467,1.522.69,2.172.244.751.447,1.461.629,2.152.244-.812.487-1.644.751-2.456.223-.71.467-1.461.71-2.294.264-.812.507-1.583.751-2.294Z" transform="translate(-308.609 -66.872)"/>
    <path id="Path_7" data-name="Path 7" class="cls-1" d="M494.07,85.584l-2.273-6.84-7.266.1L482.2,85.584h-2.5l7.632-20.094,3.816-.69,7.1,20.764H494.07Zm-2.882-8.748-2.943-8.748-3,8.748Z" transform="translate(-382.334 -64.8)"/>
    <path id="Path_8" data-name="Path 8" class="cls-1" d="M588.522,87.064a8.885,8.885,0,0,1-3.857-.771,6.829,6.829,0,0,1-2.578-2.152,9.208,9.208,0,0,1-1.441-3.329,18.988,18.988,0,0,1-.446-4.323,11.667,11.667,0,0,1,.446-3.41,9.256,9.256,0,0,1,1.2-2.639,8.476,8.476,0,0,1,1.766-1.928,9.937,9.937,0,0,1,2.111-1.279,10.511,10.511,0,0,1,2.273-.71,12.676,12.676,0,0,1,2.273-.223c.467,0,.934.02,1.441.041s.995.061,1.482.122c.467.061.913.1,1.34.183.406.061.751.122,1.015.183l-.731,2.882c-.264-.081-.629-.183-1.116-.284s-.995-.183-1.543-.284c-.548-.081-1.1-.162-1.624-.223a11.69,11.69,0,0,0-1.34-.081c-.406,0-.751.02-1.055.041a5.385,5.385,0,0,0-.852.122,2.877,2.877,0,0,0-.731.284,4.412,4.412,0,0,0-.69.447,3.554,3.554,0,0,0-1.218,2.415,24.608,24.608,0,0,0-.325,4.445,12.6,12.6,0,0,0,1.218,6.191,4.161,4.161,0,0,0,3.9,2.091,21.612,21.612,0,0,0,3.166-.244,17.628,17.628,0,0,0,3-.71V85.6a11.752,11.752,0,0,1-1.624.629,17.761,17.761,0,0,1-1.786.467,18.406,18.406,0,0,1-1.847.284C589.7,87.044,589.09,87.064,588.522,87.064Z" transform="translate(-462.436 -65.996)"/>
  </g>
  <g id="Group_2" data-name="Group 2" transform="translate(80.844)">
    <path id="Path_9" data-name="Path 9" class="cls-2" d="M401.852,0l1.766,1.015,1.827,1.035V6.191l-1.827,1.015-1.766,1.035-1.786-1.035L398.3,6.191V2.05l1.766-1.035Z" transform="translate(-398.3)"/>
    <path id="Path_10" data-name="Path 10" class="cls-3" d="M443.513,0,445.3,1.015l1.766,1.035V6.191L445.3,7.206l-1.786,1.035-1.827-1.035L439.9,6.191V2.05l1.786-1.035Z" transform="translate(-431.456)"/>
    <path id="Path_11" data-name="Path 11" class="cls-4" d="M422.252,35l1.786,1.015,1.827,1.076v4.08l-1.827,1.035-1.786,1.076-1.786-1.076L418.7,41.17v-4.08l1.766-1.076Z" transform="translate(-414.559 -27.896)"/>
  </g>
</svg>
