<svg id="Group_158" data-name="Group 158" xmlns="http://www.w3.org/2000/svg" viewBox="0 0 27.333 31.846">
  <defs>
    <style>
      .cls-1 {
        fill: #ff8300;
      }
    </style>
  </defs>
  <path id="Path_168" data-name="Path 168" class="cls-1" d="M.505,0A.763.763,0,0,0,0,.719V9.83c0,11.788,1.751,16.1,13.325,21.938a.728.728,0,0,0,.342.078.826.826,0,0,0,.342-.078C25.582,25.931,27.333,21.618,27.333,9.83V.719A.77.77,0,0,0,26.828,0M25.817,9.83c0,11.3-1.438,14.948-12.151,20.408C2.961,24.778,1.516,21.119,1.516,9.83V1.666H13.667l12.151-.021Z"/>
  <path id="Path_169" data-name="Path 169" class="cls-1" d="M246.062,134.9H249.1a.762.762,0,1,0,0-1.523h-2.278v-5.317a.762.762,0,1,0-1.523,0v6.072A.764.764,0,0,0,246.062,134.9Z" transform="translate(-227.839 -118.239)"/>
  <path id="Path_170" data-name="Path 170" class="cls-1" d="M76.885,128.823H78.4a.762.762,0,0,0,0-1.523H76.885a2.278,2.278,0,1,0,0,4.556.762.762,0,0,1,0,1.523H75.362a.762.762,0,1,0,0,1.523h1.516a2.278,2.278,0,1,0,0-4.556.762.762,0,0,1-.762-.762A.773.773,0,0,1,76.885,128.823Z" transform="translate(-69.29 -118.239)"/>
  <path id="Path_171" data-name="Path 171" class="cls-1" d="M160,129.678a2.284,2.284,0,0,0,2.278,2.278.762.762,0,0,1,0,1.523h-1.516a.762.762,0,1,0,0,1.523h1.516a2.278,2.278,0,0,0,0-4.556.762.762,0,1,1,0-1.523h1.516a.762.762,0,1,0,0-1.523h-1.516A2.284,2.284,0,0,0,160,129.678Z" transform="translate(-148.611 -118.332)"/>
</svg>
