<svg xmlns="http://www.w3.org/2000/svg" viewBox="0 0 22.921 14">
  <defs>
    <style>
      .cls-1 {
        fill: #fff;
      }

      .cls-2 {
        fill: none;
        stroke: #fff;
        stroke-linecap: round;
      }
    </style>
  </defs>
  <g id="Group_166" data-name="Group 166" transform="translate(-1371 -3087)">
    <path id="Path_26" data-name="Path 26" class="cls-1" d="M15.712,2.271A.261.261,0,0,0,15.67,2.1V2.057c0-.043-.042-.085-.084-.128l-.042-.043c-.042,0-.042-.043-.084-.043a.151.151,0,0,0-.125-.043h-.042c-.042,0-.084-.043-.125-.043l-12,.034L2.8.384V.341C2.8.3,2.8.3,2.756.3h0A.513.513,0,0,0,2.3,0H.5A.545.545,0,0,0,0,.512a.513.513,0,0,0,.5.512H1.879l2.8,10.287a1.519,1.519,0,0,0-.292.982,1.671,1.671,0,1,0,3.34,0,1.746,1.746,0,0,0-.125-.64h3.3a1.746,1.746,0,0,0-.125.64,1.671,1.671,0,1,0,1.67-1.707H5.6L5.178,9.006l8.238-.034h.125A.492.492,0,0,0,14,8.588l1.712-6.232V2.271ZM12.443,11.7a.64.64,0,1,1-.626.64A.6.6,0,0,1,12.443,11.7Zm-6.388,0h0a.64.64,0,1,1-.626.64A.622.622,0,0,1,6.054,11.7Zm7.027-3.748-8.238.034L3.466,2.817,14.5,2.783Z" transform="translate(1378.209 3087)"/>
    <line id="Line_11" data-name="Line 11" class="cls-2" x2="2" transform="translate(1376.5 3093.5)"/>
    <line id="Line_13" data-name="Line 13" class="cls-2" x2="4" transform="translate(1373.5 3091.5)"/>
    <line id="Line_14" data-name="Line 14" class="cls-2" x2="5" transform="translate(1371.5 3089.5)"/>
  </g>
</svg>
