<svg xmlns="http://www.w3.org/2000/svg" viewBox="0 0 26.324 22.945">
  <defs>
    <style>
      .cls-1 {
        fill: #303030;
      }
    </style>
  </defs>
  <g id="Group_173" data-name="Group 173" transform="translate(-1278.008 -32.927)">
    <path id="Path_20" data-name="Path 20" class="cls-1" d="M26.324,3.721a.421.421,0,0,0-.07-.28v-.07c0-.07-.07-.14-.14-.21l-.07-.07c-.07,0-.07-.07-.14-.07a.257.257,0,0,0-.21-.07h-.07c-.07,0-.14-.07-.21-.07l-20.1.056L4.687.63V.56c0-.07,0-.07-.07-.07h0A.86.86,0,0,0,3.848,0H.839A.9.9,0,0,0,0,.839a.851.851,0,0,0,.839.839H3.148L7.835,18.538a2.452,2.452,0,0,0-.49,1.609A2.8,2.8,0,1,0,12.732,19.1h5.526a2.795,2.795,0,1,0,2.588-1.749H9.374l-.7-2.588,13.8-.056h.21a.82.82,0,0,0,.77-.63L26.324,3.861v-.14ZM20.847,19.168A1.049,1.049,0,1,1,19.8,20.217.991.991,0,0,1,20.847,19.168Zm-10.7,0h0a1.049,1.049,0,1,1-1.049,1.049A1.03,1.03,0,0,1,10.144,19.168Zm11.773-6.142-13.8.056L5.806,4.617,24.3,4.561Z" transform="translate(1278.008 32.927)"/>
  </g>
</svg>
