<svg xmlns="http://www.w3.org/2000/svg" viewBox="0 0 53.672 24.705">
  <defs>
    <style>
      .cls-1 {
        fill: none;
        stroke: #ff8300;
        stroke-linecap: round;
      }

      .cls-2 {
        fill: #ff8300;
      }
    </style>
  </defs>
  <g id="Group_171" data-name="Group 171" transform="translate(-425 -1602.5)">
    <line id="Line_61" data-name="Line 61" class="cls-1" x2="10" transform="translate(425.5 1603.5)"/>
    <line id="Line_62" data-name="Line 62" class="cls-1" x2="5" transform="translate(430.5 1608.5)"/>
    <path id="Path_164" data-name="Path 164" class="cls-2" d="M37.058,11.155,34,8.125,31.469,2.654A4.619,4.619,0,0,0,27.312,0H3.617A3.618,3.618,0,0,0,0,3.617V17.543A3.358,3.358,0,0,0,3.358,20.9H5.871a4.478,4.478,0,0,0,8.853,0h9.511a4.478,4.478,0,0,0,8.853,0H35.25a3.358,3.358,0,0,0,3.358-3.358v-2.7A5.461,5.461,0,0,0,37.058,11.155ZM10.286,23.3a3.1,3.1,0,1,1,3.1-3.1A3.1,3.1,0,0,1,10.286,23.3Zm18.365,0a3.1,3.1,0,1,1,3.1-3.1A3.1,3.1,0,0,1,28.651,23.3Zm8.525-5.754a1.944,1.944,0,0,1-1.949,1.949H33.066a4.482,4.482,0,0,0-8.853,0H14.725a4.48,4.48,0,0,0-8.853.023H3.358a1.98,1.98,0,0,1-1.949-1.973V3.617A2.2,2.2,0,0,1,3.617,1.409H27.288a3.179,3.179,0,0,1,2.889,1.855L32.76,8.853c.023.094.094.141.141.211l3.147,3.123a3.807,3.807,0,0,1,1.127,2.677Z" transform="translate(440.064 1602.5)"/>
  </g>
</svg>
