<svg xmlns="http://www.w3.org/2000/svg" viewBox="0 0 18.37 13.993">
  <defs>
    <style>
      .cls-1 {
        fill: #fff;
      }
    </style>
  </defs>
  <path id="Path_172" data-name="Path 172" class="cls-1" d="M18.37,1.615A1.617,1.617,0,0,0,16.755,0H1.615A1.617,1.617,0,0,0,0,1.615V12.378a1.617,1.617,0,0,0,1.615,1.615H16.755a1.617,1.617,0,0,0,1.615-1.615ZM1.076,1.833,6.261,6.971,1.076,12.156ZM9.221,8.388,1.844,1.076H16.533Zm-2.2-.66,1.819,1.8a.541.541,0,0,0,.761,0l1.772-1.772,5.156,5.159H1.837ZM12.134,7l5.159-5.159V12.156Z"/>
</svg>
