<svg xmlns="http://www.w3.org/2000/svg" viewBox="0 0 22.598 22.616">
  <defs>
    <style>
      .cls-1 {
        fill: #303030;
      }
    </style>
  </defs>
  <g id="Group_172" data-name="Group 172" transform="translate(-1234.538 -33.256)">
    <path id="Path_18" data-name="Path 18" class="cls-1" d="M22.217,20.547l-5.373-5.373a8.923,8.923,0,0,0,2.033-5.736,9.439,9.439,0,1,0-9.439,9.439,9.285,9.285,0,0,0,5.736-1.96l5.373,5.373a1.23,1.23,0,0,0,1.67,0A1.186,1.186,0,0,0,22.217,20.547ZM9.439,16.7a7.26,7.26,0,1,1,7.26-7.26A7.282,7.282,0,0,1,9.439,16.7Z" transform="translate(1234.538 33.256)"/>
  </g>
</svg>
