<svg xmlns="http://www.w3.org/2000/svg" viewBox="0 0 25.611 25.649">
  <defs>
    <style>
      .cls-1 {
        fill: #ff8300;
      }
    </style>
  </defs>
  <g id="Group_157" data-name="Group 157" transform="translate(-0.002 -0.012)">
    <path id="Path_165" data-name="Path 165" class="cls-1" d="M20.253,80.405a2.524,2.524,0,0,0-1.829-.838,2.612,2.612,0,0,0-1.852.834l-1.71,1.706c-.142-.076-.281-.146-.416-.216-.2-.1-.38-.189-.537-.288a18.562,18.562,0,0,1-4.454-4.061,11.009,11.009,0,0,1-1.461-2.306c.443-.407.856-.829,1.256-1.234.153-.151.3-.308.454-.461a2.483,2.483,0,0,0,0-3.746L8.225,68.317c-.169-.169-.342-.342-.5-.515C7.4,67.468,7.057,67.119,6.7,66.8A2.562,2.562,0,0,0,4.89,66a2.654,2.654,0,0,0-1.841.8l-.011.011L1.2,68.663A3.959,3.959,0,0,0,.025,71.18,9.477,9.477,0,0,0,.717,75.2,23.29,23.29,0,0,0,4.859,82.1a25.469,25.469,0,0,0,8.481,6.643A13.2,13.2,0,0,0,18.1,90.154c.115,0,.234.011.342.011a4.083,4.083,0,0,0,3.124-1.342c0-.011.016-.016.022-.027a12.061,12.061,0,0,1,.948-.98c.231-.222.47-.454.7-.7a2.7,2.7,0,0,0,.818-1.872,2.6,2.6,0,0,0-.834-1.856Zm1.939,5.7c-.007,0-.007.007,0,0-.211.227-.427.434-.661.661a13.72,13.72,0,0,0-1.045,1.083,2.611,2.611,0,0,1-2.036.861c-.081,0-.169,0-.249,0a11.741,11.741,0,0,1-4.223-1.268,24.023,24.023,0,0,1-7.989-6.259,21.95,21.95,0,0,1-3.9-6.49A7.736,7.736,0,0,1,1.486,71.3a2.474,2.474,0,0,1,.746-1.607l1.845-1.845a1.227,1.227,0,0,1,.823-.384,1.16,1.16,0,0,1,.791.38l.016.016c.33.308.645.627.975.969.169.173.342.346.515.526l1.479,1.479a1.035,1.035,0,0,1,0,1.679c-.157.157-.308.315-.465.465-.454.465-.888.9-1.36,1.321-.011.011-.022.016-.027.027a1.1,1.1,0,0,0-.281,1.229l.016.049a11.886,11.886,0,0,0,1.748,2.852l0,0a19.882,19.882,0,0,0,4.807,4.373,7.247,7.247,0,0,0,.665.362,5.807,5.807,0,0,1,.535.288c.022.011.043.027.065.038a1.171,1.171,0,0,0,.535.135,1.156,1.156,0,0,0,.823-.373l1.852-1.852a1.225,1.225,0,0,1,.818-.407,1.106,1.106,0,0,1,.78.4l2.993,2.993a1.068,1.068,0,0,1,.009,1.692Zm0,0" transform="translate(0 -64.505)"/>
    <path id="Path_166" data-name="Path 166" class="cls-1" d="M589.657,208.412a6.963,6.963,0,0,1,5.672,5.672.726.726,0,0,0,.719.607.765.765,0,0,0,.124-.011.731.731,0,0,0,.6-.845,8.425,8.425,0,0,0-6.863-6.863.731.731,0,0,0-.252,1.441Zm0,0" transform="translate(-575.813 -202.299)"/>
    <path id="Path_167" data-name="Path 167" class="cls-1" d="M610.514,11.325a13.866,13.866,0,0,0-11.3-11.3.73.73,0,1,0-.24,1.441,12.386,12.386,0,0,1,10.1,10.1.726.726,0,0,0,.719.607.766.766,0,0,0,.124-.011.715.715,0,0,0,.6-.834Zm0,0" transform="translate(-584.913 0)"/>
  </g>
</svg>
